<svg xmlns="http://www.w3.org/2000/svg" xmlns:xlink="http://www.w3.org/1999/xlink" viewBox="0 0 309.37 309.37"><defs><style>.cls-1{fill:none;}.cls-2{fill:#fedc50;}.cls-3{clip-path:url(#clip-path);}.cls-4{fill:#bdc3c7;}.cls-5{clip-path:url(#clip-path-2);}.cls-6{fill:#edf0f1;}.cls-7{fill:#a09f9f;}.cls-8{fill:#6b6b6b;}.cls-9{fill:#fff;}.cls-10{fill:#232323;stroke:#cccccb;stroke-linecap:round;stroke-linejoin:round;stroke-width:6px;}</style><clipPath id="clip-path" transform="translate(-25.32 -25.32)"><rect class="cls-1" x="73.6" y="73.6" width="212.8" height="212.8"/></clipPath><clipPath id="clip-path-2" transform="translate(-25.32 -25.32)"><rect class="cls-1" x="73.6" y="73.6" width="212.8" height="212.8"/></clipPath></defs><g id="Layer_1" data-name="Layer 1"><rect class="cls-2" width="309.37" height="309.37" rx="38.61"/></g><g id="Layer_2" data-name="Layer 2"><g class="cls-3"><path class="cls-4" d="M117.93,109.07A17.76,17.76,0,0,0,100.2,126.8V250.93a17.76,17.76,0,0,0,17.73,17.73H242.07a17.76,17.76,0,0,0,17.73-17.73V126.8a17.76,17.76,0,0,0-17.73-17.73H117.93Z" transform="translate(-25.32 -25.32)"/></g><g class="cls-5"><path class="cls-6" d="M117.93,100.2a17.73,17.73,0,0,0-17.73,17.73V242.06a17.73,17.73,0,0,0,17.73,17.74H242.07a17.73,17.73,0,0,0,17.73-17.74V117.93a17.73,17.73,0,0,0-17.73-17.73H117.93Z" transform="translate(-25.32 -25.32)"/></g><g class="cls-3"><path class="cls-7" d="M117.93,100.2a17.76,17.76,0,0,0-17.73,17.73v26.6H259.8v-26.6a17.76,17.76,0,0,0-17.73-17.73H117.93Z" transform="translate(-25.32 -25.32)"/></g><g class="cls-5"><path class="cls-8" d="M140.1,122.37a13.3,13.3,0,1,1-6.63-11.57A13.32,13.32,0,0,1,140.1,122.37Z" transform="translate(-25.32 -25.32)"/></g><g class="cls-5"><path class="cls-9" d="M126.8,82.47a8.87,8.87,0,0,0-8.87,8.86v26.6a8.87,8.87,0,1,0,17.74,0V91.33A8.87,8.87,0,0,0,126.8,82.47Z" transform="translate(-25.32 -25.32)"/></g><g class="cls-5"><path class="cls-8" d="M246.5,122.37a13.3,13.3,0,1,1-6.63-11.57A13.32,13.32,0,0,1,246.5,122.37Z" transform="translate(-25.32 -25.32)"/></g><g class="cls-3"><path class="cls-9" d="M233.2,82.47a8.61,8.61,0,0,0-8.87,8.86v26.6a8.87,8.87,0,0,0,17.74,0V91.33A8.61,8.61,0,0,0,233.2,82.47Z" transform="translate(-25.32 -25.32)"/></g><g class="cls-3"><path class="cls-4" d="M224.33,171.13v17.74h17.74V171.13Zm-26.6,0v17.74h17.74V171.13Zm-26.6,0v17.74h17.74V171.13Zm-26.6,0v17.74h17.74V171.13Zm-26.6,0v17.74h17.74V171.13Z" transform="translate(-25.32 -25.32)"/></g><g class="cls-3"><path class="cls-4" d="M224.33,197.73v17.74h17.74V197.73Zm-26.6,0v17.74h17.74V197.73Zm-26.6,0v17.74h17.74V197.73Zm-26.6,0v17.74h17.74V197.73Zm-26.6,0v17.74h17.74V197.73Z" transform="translate(-25.32 -25.32)"/></g><g class="cls-3"><path class="cls-4" d="M224.33,224.33v17.74h17.74V224.33Zm-26.6,0v17.74h17.74V224.33Zm-26.6,0v17.74h17.74V224.33Zm-26.6,0v17.74h17.74V224.33Zm-26.6,0v17.74h17.74V224.33Z" transform="translate(-25.32 -25.32)"/></g><g class="cls-5"><rect class="cls-8" x="74.89" y="119.22" width="159.6" height="8.87"/></g><path class="cls-10" d="M300.05,82.54a19.33,19.33,0,0,1,5.35,2.19,28.76,28.76,0,0,1-26.46,51.08l-19.32,43-74.3-38.48,24-40.59a28.76,28.76,0,1,1,26.46-51.08,19.54,19.54,0,0,1,4.87,3.11" transform="translate(-25.32 -25.32)"/><path class="cls-10" d="M295.87,97.45a36.61,36.61,0,0,0-65-33.67" transform="translate(-25.32 -25.32)"/><line class="cls-10" x1="213.99" y1="101.74" x2="206.77" y2="115.67"/><line class="cls-10" x1="197.74" y1="93.32" x2="188.92" y2="104.65"/><line class="cls-10" x1="230.24" y1="110.16" x2="226.07" y2="123.9"/></g></svg>